{"title":"David.1988.TV.VHSRip.XviD-FLAiR","uid":7093185,"size":735680933,"categoryP":"video","categoryS":"movies","magnet":"?xt=urn:btih:66c2e6f804a6f15050131d385e7f778362049fb9&amp;dn=David.1988.TV.VHSRip.XviD-FLAiR&amp;tr=udp%3A%2F%2Ftracker.openbittorrent.com%3A80&amp;tr=udp%3A%2F%2Fopen.demonii.com%3A1337&amp;tr=udp%3A%2F%2Ftracker.coppersurfer.tk%3A6969&amp;tr=udp%3A%2F%2Fexodus.desync.com%3A6969","seeders":0,"leechers":1,"uploader":"TvTeam","files":4,"time":1331448555,"description":". \n &lt;a href=&quot;\nhttp://www.torrenting.com&quot; rel=&quot;nofollow&quot; target=&quot;_NEW&quot;&gt;\nhttp://www.torrenting.com&lt;/a&gt;          :     Once &amp; For all ;)\n\n\n               www . Torrenting . Com \n\n(((((((((((((= Enjoy No RAR releases =))))))))))))))))))))\n\n\n...................................NFO:....................................\n\n.General\nComplete name                    : flair-david.avi\nFormat                           : AVI\nFormat/Info                      : Audio Video Interleave\nFormat profile                   : OpenDML\nFormat settings                  : rec\nFile size                        : 702 MiB\nDuration                         : 1h 34mn\nOverall bit rate                 : 1 041 Kbps\nMovie name                       : David.1988.TV.VHSRip.XviD-FLAiR\nWriting application              : AVI-Mux GUI 1.17.7, Aug  8 2006  20:59:17\n\nVideo\nID                               : 0\nFormat                           : MPEG-4 Visual\nFormat profile                   : Advanced Simple@L5\nFormat settings, BVOP            : 2\nFormat settings, QPel            : No\nFormat settings, GMC             : No warppoints\nFormat settings, Matrix          : Default (H.263)\nMuxing mode                      : Packed bitstream\nCodec ID                         : XVID\nCodec ID/Hint                    : XviD\nDuration                         : 1h 34mn\nBit rate                         : 911 Kbps\nWidth                            : 576 pixels\nHeight                           : 432 pixels\nDisplay aspect ratio             : 4:3\nFrame rate                       : 25.000 fps\nColor space                      : YUV\nChroma subsampling               : 4:2:0\nBit depth                        : 8 bits\nScan type                        : Progressive\nCompression mode                 : Lossy\nBits/(Pixel*Frame)               : 0.146\nStream size                      : 614 MiB (88%)\nWriting library                  : XviD 1.2.1 (UTC 2008-12-04)\n\nAudio\nID                               : 1\nFormat                           : MPEG Audio\nFormat version                   : Version 1\nFormat profile                   : Layer 3\nMode                             : Joint stereo\nMode extension                   : MS Stereo\nCodec ID                         : 55\nCodec ID/Hint                    : MP3\nDuration                         : 1h 34mn\nBit rate mode                    : Variable\nBit rate                         : 121 Kbps\nChannel(s)                       : 2 channels\nSampling rate                    : 48.0 KHz\nCompression mode                 : Lossy\nStream size                      : 81.6 MiB (12%)\nAlignment                        : Aligned on interleaves\nInterleave, duration             : 24 ms (0.60 video frame)\nInterleave, preload duration     : 98 ms\nTitle                            : david","torrent":{"xt":"urn:btih:66c2e6f804a6f15050131d385e7f778362049fb9","amp;dn":"David.1988.TV.VHSRip.XviD-FLAiR","amp;tr":["udp%3A%2F%2Ftracker.openbittorrent.com%3A80","udp%3A%2F%2Fopen.demonii.com%3A1337","udp%3A%2F%2Ftracker.coppersurfer.tk%3A6969","udp%3A%2F%2Fexodus.desync.com%3A6969"],"infoHash":"66c2e6f804a6f15050131d385e7f778362049fb9","infoHashBuffer":{"type":"Buffer","data":[102,194,230,248,4,166,241,80,80,19,29,56,94,127,119,131,98,4,159,185]},"announce":[],"urlList":[]}}